<svg xmlns="http://www.w3.org/2000/svg" width="24" height="24" fill="none" style="-webkit-print-color-adjust::exact" viewBox="0.002 0.002 24 24"><g class="icon icon-tabler icons-tabler-outline icon-tabler-brand-discord" data-testid="svg" style="fill:#000"><path fill="none" d="M.002.002h24v24h-24Z" class="fills" data-testid="svg-path" style="fill:none"/><g data-testid="svg-path"><path fill="none" d="M8.002 12.002a1 1 0 1 0 2 0 1 1 0 0 0-2 0Z" class="fills" style="fill:none"/><g fill="none" stroke-linejoin="round" class="strokes"><path d="M8.002 12.002a1 1 0 1 0 2 0 1 1 0 0 0-2 0Z" class="stroke-shape" style="fill:none;fill-opacity:none;stroke-width:2;stroke:#ccc5b9;stroke-opacity:1"/></g></g><g data-testid="svg-path"><path fill="none" d="M14.002 12.002a1 1 0 1 0 2 0 1 1 0 0 0-2 0Z" class="fills" style="fill:none"/><g fill="none" stroke-linejoin="round" class="strokes"><path d="M14.002 12.002a1 1 0 1 0 2 0 1 1 0 0 0-2 0Z" class="stroke-shape" style="fill:none;fill-opacity:none;stroke-width:2;stroke:#ccc5b9;stroke-opacity:1"/></g></g><g data-testid="svg-path"><path fill="none" d="M15.502 17.002c0 1 1.5 3 2 3 1.5 0 2.833-1.667 3.5-3 .667-1.667.5-5.833-1.5-11.5-1.457-1.015-3-1.34-4.5-1.5l-.972 1.923a11.939 11.939 0 0 0-4.053 0l-.975-1.923c-1.5.16-3.043.485-4.5 1.5-2 5.667-2.167 9.833-1.5 11.5.667 1.333 2 3 3.5 3 .5 0 2-2 2-3" class="fills" style="fill:none"/><g fill="none" stroke-linejoin="round" class="strokes"><path d="M15.502 17.002c0 1 1.5 3 2 3 1.5 0 2.833-1.667 3.5-3 .667-1.667.5-5.833-1.5-11.5-1.457-1.015-3-1.34-4.5-1.5l-.972 1.923a11.939 11.939 0 0 0-4.053 0l-.975-1.923c-1.5.16-3.043.485-4.5 1.5-2 5.667-2.167 9.833-1.5 11.5.667 1.333 2 3 3.5 3 .5 0 2-2 2-3" class="stroke-shape" style="fill:none;fill-opacity:none;stroke-width:2;stroke:#ccc5b9;stroke-opacity:1"/></g></g><g data-testid="svg-path"><path fill="none" d="M7.002 16.502c3.5 1 6.5 1 10 0" class="fills" style="fill:none"/><g fill="none" stroke-linejoin="round" class="strokes"><path d="M7.002 16.502c3.5 1 6.5 1 10 0" class="stroke-shape" style="fill:none;fill-opacity:none;stroke-width:2;stroke:#ccc5b9;stroke-opacity:1"/></g></g></g></svg>