<svg xmlns="http://www.w3.org/2000/svg" width="200" height="200" fill="none" style="-webkit-print-color-adjust::exact"><g xml:space="preserve" data-testid="svg" style="fill:#000"><path d="m171.216 73.884.02-.099-.053-.69.037-.696-.019-.099.017-.215c-.618-9.444-5.992-15.01-15.69-17.072-.841-4.3-1.976-8.6-3.637-12.895-3.156-.612-6.073-.534-8.93-.304-1.31 9.465-5.743 12.925-12.976 15.121l-13.391-.067-.433-15.468c2.044-7.267 5.403-11.779 14.838-13.307.166-2.865.18-5.78-.505-8.92-4.329-1.557-8.65-2.599-12.973-3.344-2.273-9.66-7.96-14.908-17.413-15.305l-.151.003-.775.05-.774-.033h-.154c-9.436.61-15.01 5.98-17.072 15.691-4.302.838-8.599 1.974-12.886 3.624-.619 3.16-.544 6.072-.312 8.931 9.463 1.32 12.924 5.756 15.129 12.975l-.091 15.474-13.388.363c-7.27-2.035-11.779-5.393-13.307-14.828-2.863-.167-5.78-.179-8.922.501-1.553 4.332-2.605 8.655-3.348 12.973-9.652 2.277-14.9 7.96-15.299 17.417l.012.213-.009.1.046.696-.03.692.011.098-.008.217c.61 9.444 5.983 15.016 15.682 17.071.839 4.301 1.986 8.6 3.634 12.894 3.158.623 6.073.536 8.934.317 1.316-9.476 5.752-12.937 12.973-15.132l13.394.068 1.179 82.969c-2.041 7.267-5.402 11.777-14.835 13.304-.169 2.865-.181 5.78.511 8.922 4.322 1.555 8.644 2.605 12.964 3.35.002.006.005.013.004.02 12.191-.266 24.421-2.008 36.548-.471 4.231-.834 8.46-1.966 12.68-3.59.616-3.159.539-6.07.308-8.932-9.466-1.316-12.925-5.751-15.132-12.971l-.657-82.975 13.388-.365c7.279 2.037 11.789 5.399 13.305 14.84 2.864.157 5.78.177 8.923-.512 1.564-4.329 2.605-8.652 3.348-12.97 9.652-2.269 14.899-7.961 15.307-17.417l-.022-.217Z" class="fills" data-testid="svg-path" style="fill:#030104"/></g></svg>