<svg xmlns="http://www.w3.org/2000/svg" width="200" height="200" fill="none" style="-webkit-print-color-adjust::exact"><g xml:space="preserve" data-testid="svg" style="fill:#000"><path d="M131.889 12.165c-1.422.383-3.128.035-4.097.816-1.999 1.617-2.722 8.682-3.546 11.744-.844 3.034-1.703 6.065-2.551 9.092-.429 3.429-.85 6.854-1.272 10.287-1.852 5.672-3.699 11.341-5.55 17.025-.063.019-.125.05-.191.081-.903-.172-1.817-.364-2.727-.547a1226.203 1226.203 0 0 0-3.999-3.358c-.07-1.68-.746-3.153-.449-5.105.14-2.304.289-4.608.449-6.912a902.998 902.998 0 0 0-1.187-3.722c-.211-2.308-.418-4.616-.637-6.929-.174-3.304-.362-6.612-.542-9.912-.559-3.524-.305-8.913-4.636-8.108-.671.133-1.339.25-2.007.368-4.78 2.713-3.565 10.283-3.277 16.477.102 2.362-1.245 5.312-.726 8.463.359 2.243.726 4.484 1.093 6.73-.336 1.269-.676 2.542-1.003 3.823l-.364 4.276c-.065 2.461-.121 4.909-.186 7.37-1.091 5.413-2.938 11.189-7.913 12.744-.879-.039-1.758-.07-2.637-.094-4.741-.063-5.424-1.52-7.373-4.186a400.097 400.097 0 0 1-4.101-5.727c-.566-.788-1.148-1.581-1.723-2.37-.729-1.969-.402-4.05-1.179-5.824-1.097-2.5-3.015-4.979-4.647-7.006-1.777-2.206-5.261-6.877-9.737-5.006-1.327.549-1.776 1.738-2.725 2.632 1.635 3.547 3.468 7.405 4.545 11.466.645 2.453.137 5.597.91 7.737 1.664 4.561 4.195 9.166 5.553 13.919.302 2.71.607 5.412.903 8.107.73 1.758 2.569 2.672 3.652 4.098.632.941 1.269 1.878 1.91 2.823 2.238 3.425 3.565 7.451 5.636 10.917 2.031 3.394 4.9 6.65 6.459 10.364 1.024 2.421 1.398 5.069 2.195 7.742 1.207 4.693 2.413 9.4 3.636 14.109l1.613 12.365-11.993 1.449-12.87 5.787c-10.724-7.635-20.035-3.521-28.623 6.434-5.639-6.258-16.974-4.359-19.616 5.467-14.248-.754-20.165 9.315-13.829 15.764L200 185.26c-10.213-16.189-20.551-26.284-31.196-20.586-.111-7.175-5.999-11.272-18.976-11.581-6.339-7.314-14.24-9.622-24.441-4.503l-1.254.153-.074-3.906c-.645-4.162-.351-10.377.274-14.286v-6.367c.355-1.878.44-3.873.91-6.009.316-1.454 1.781-2.848 2.55-3.999 1.608-2.637 3.219-5.281 4.815-7.925 3.332-5.648 6.597-11.049 10.022-16.471 1.207-1.96 2.418-3.936 3.64-5.908 1.976-2.652 5.152-4.336 7.089-6.921 2.972-3.921 5.901-7.71 8.471-12.005.824-1.395 1.035-3.198 1.637-4.824a9617.94 9617.94 0 0 1 5.002-11.298c.617-1.585 1.347-4.315.277-6.077-2.179-3.59-6.421.277-7.737 1.992-1.12 1.733-2.245 3.46-3.366 5.182-.484 1.219-.977 2.433-1.453 3.64-1.25 1.492-2.492 2.968-3.734 4.464-.823 1.516-1.648 3.031-2.463 4.55-.693.578-1.395 1.157-2.09 1.723-2.098 1.668-4.183 3.413-5.644 5.737h-1.726l.183-.183c1.152-1.391 2.297-2.792 3.453-4.175 1.605-2.617 3.225-5.238 4.827-7.827.57-2.518 1.156-5.042 1.722-7.56 1.309-4.945 2.617-9.885 3.922-14.826 1.257-4.268 5.089-11.603-.82-13.56-1.782-.593-3.996-.117-4.917.91-1.3 3.277-2.604 6.551-3.914 9.823a368.74 368.74 0 0 0-.265 3.64c-1.214 2.274-2.438 4.554-3.648 6.823-.566 1.796-1.147 3.582-1.722 5.366-.216 1.066-.427 2.136-.638 3.195-.909.851-1.824 1.699-2.729 2.539-.828 1.101-1.641 2.191-2.465 3.287-1.8 2.552-2.293 6.41-6.639 4.902v-.086c.843-3.468 2.39-6.775 3.722-9.825a200.85 200.85 0 0 0 1.55-2.824c.04-2.906.067-5.828.091-8.729.612-4.475 1.221-8.923 1.824-13.385.563-2.831 2.187-11.376.909-13.462-.619-1.031-2.106-1.23-3.09-1.913Z" class="fills" data-testid="svg-path" style="fill:#030104"/><path d="M138.739 136.902a2.871 2.871 0 0 1 2.874 2.875 2.87 2.87 0 0 1-2.874 2.874 2.871 2.871 0 0 1-2.874-2.874 2.872 2.872 0 0 1 2.874-2.875Z" class="fills" data-testid="svg-path" style="fill:#030104"/><circle cx="131.245" cy="127.892" r="4.651" class="fills" data-testid="svg-circle" style="fill:#030104"/><path d="M62.785 141.578a3.36 3.36 0 0 1 3.362 3.363 3.357 3.357 0 0 1-3.362 3.362 3.362 3.362 0 1 1 0-6.725Z" class="fills" data-testid="svg-path" style="fill:#030104"/><circle cx="67.952" cy="131.251" r="5.168" class="fills" data-testid="svg-circle" style="fill:#030104"/><circle cx="58.653" cy="121.433" r="5.167" class="fills" data-testid="svg-circle" style="fill:#030104"/></g></svg>