<svg xmlns="http://www.w3.org/2000/svg" width="200" height="200" fill="none" style="-webkit-print-color-adjust::exact"><g xml:space="preserve" data-testid="svg" style="fill:#000"><path d="M184.908 63.528c-10.07-12.357-20.879-18.524-32.436-18.524-8.175 0-15.843 3.274-23.021 9.863-4.982-3.794-10.363-6.487-16.149-8.079-1.196-15.535-8.07-26.799-20.629-33.791l-13.151 9.286c8.564 5.573 13.55 13.342 14.945 23.309-8.57 1-16.542 4.186-23.918 9.558-7.37-6.77-15.245-10.146-23.612-10.146-11.762 0-22.327 6.166-31.691 18.524C5.079 76.277 0 91.337 0 108.673a74.036 74.036 0 0 0 1.19 13.156c2.991 17.937 11.366 33.591 25.114 46.932 12.357 12.168 23.821 18.243 34.384 18.243.25 0 .507-.009.764-.027 12.093-3.712 24.93-5.713 38.239-5.713a130.32 130.32 0 0 1 32.205 4.02l-.056-.074.243.12c1.968.504 3.917 1.056 5.85 1.649.261.016.523.025.784.025 10.566 0 21.92-6.075 34.081-18.243v-.001c13.349-13.341 21.922-28.994 25.706-46.932 1.007-4.974 1.496-9.862 1.496-14.646.001-16.751-5.034-31.3-15.092-43.654ZM37.665 87.751l42.753 14.658c-3.59 9.755-10.065 14.636-19.433 14.636-2.591 0-4.887-.4-6.875-1.195-12.761-5.177-18.236-14.55-16.445-28.099Zm37.972 91.484.892-.897.299.304c-.199.197-.595.392-1.191.593Zm72.945-27.805H50.22l-7.171-20.04 19.136 12.868 15.54-12.868 20.936 14.651 21.824-15.532 17.037 14.646 20.034-12.554-8.974 18.829Zm.001-35.58a20.025 20.025 0 0 1-6.872 1.195c-9.569 0-16.051-4.881-19.438-14.636l42.75-14.659c1.598 13.55-3.891 22.923-16.44 28.1Z" class="fills" data-testid="svg-path" style="fill:#030104"/></g></svg>