<svg xmlns="http://www.w3.org/2000/svg" width="146.918" height="200" fill="none" style="-webkit-print-color-adjust::exact" viewBox="26.541 0 146.918 200"><g xml:space="preserve" data-testid="svg" style="fill:#000"><path d="M153.066 18.376C138.765 6.144 122.445 0 99.989 0c-22.44 0-38.761 6.144-53.055 18.376-12.241 10.198-20.393 26.52-20.393 44.906 0 16.307 2.027 28.546 6.11 34.692 6.128 10.188 10.211 16.312 10.211 20.388l2.034 16.313 28.569 14.301 6.132 12.248c2.024 0 4.078 0 8.162 2.034H99.99c10.211 0 16.335-2.034 22.456-2.034l4.075-12.248 28.576-14.301 2.034-16.313c2.049-4.076 2.049-6.128 2.049-8.158 10.196-14.29 14.279-30.615 14.279-46.923 0-18.385-6.117-34.707-20.393-44.905Zm-83.673 99.987c-12.251 0-16.32-8.158-16.32-20.388 0-6.147 0-12.268 4.069-14.293 2.038-4.092 6.134-6.12 12.251-6.12 12.228 0 18.366 6.12 18.366 18.355 0 14.288-6.138 22.446-18.366 22.446Zm36.736 22.44c-2.059 0-4.097 0-6.139-2.04-2.049 2.04-2.049 2.04-4.069 2.04-2.063 0-4.08 0-6.128-2.04-2.034 0-2.034-2.03-2.034-4.086 0-2.019 2.034-6.1 4.082-8.145 4.08-4.088 6.1-8.169 8.149-12.245 2.042 4.076 6.139 8.157 8.169 12.245 4.075 2.045 4.075 6.126 4.075 8.145 0 4.086-2.034 6.126-6.105 6.126Zm26.52-22.44c-12.246 0-18.374-8.158-18.374-20.388 0-12.268 6.128-20.414 18.374-20.414 6.116 0 10.195 2.029 12.238 6.12 4.082 2.026 4.082 6.118 4.082 12.234-.001 14.29-6.125 22.448-16.32 22.448Z" class="fills" data-testid="svg-path" style="fill:#030104"/><path d="M130.599 157.129c-4.079 8.173-6.127 12.251-10.196 14.285-4.08 4.075-12.246 4.075-20.414 4.075-10.197 0-16.315 0-20.392-4.075-4.091-2.034-6.133-6.112-10.204-14.285 0 0-2.048-2.022-2.048-4.081l-8.167 2.059 6.131 20.382 12.238 10.218C81.619 195.905 89.791 200 99.988 200c4.079 0 10.211-2.063 12.244-4.095 4.09-2.048 8.169-6.12 10.211-10.198l12.238-10.218 6.128-20.382-8.162-2.059c-2.048 2.059-2.048 4.081-2.048 4.081Z" class="fills" data-testid="svg-path" style="fill:#030104"/></g></svg>