<svg xmlns="http://www.w3.org/2000/svg" width="200" height="200" fill="none" style="-webkit-print-color-adjust::exact"><g data-testid="svg" style="fill:#000"><g data-testid="svg-g" style="fill:#000"><g class="fills" data-testid="svg-path"><path xml:space="preserve" d="m179.272 39.453-8.687-10.193a4.21 4.21 0 0 0-5.923-.474 4.214 4.214 0 0 0-.474 5.923l3.027 3.553-36.685 31.259a11.773 11.773 0 0 0-2.427-2.087c-1.472-6.829-6.018-12.551-12.101-15.631 5.919-5.455 9.628-13.269 9.628-21.953C125.63 13.363 112.267 0 95.781 0s-29.85 13.363-29.85 29.85c0 9.07 4.046 17.193 10.431 22.668-5.034 2.973-8.845 7.817-10.461 13.556l-33.117-28.22 3.027-3.55a4.214 4.214 0 0 0-.473-5.924 4.212 4.212 0 0 0-5.924.474l-8.685 10.193a4.21 4.21 0 0 0 .474 5.923 4.209 4.209 0 0 0 5.92-.472l2.936-3.444 33.708 28.721c-.205.205-.403.417-.594.635l-36.488 42.113c-4.3 4.964-3.758 12.542 1.205 16.844 4.964 4.3 12.542 3.757 16.843-1.205l20.317-23.449v14.685a22.74 22.74 0 0 0 4.246 13.24c-.199.291-.389.592-.566.905l-27.394 48.523c-3.229 5.718-1.191 13.038 4.527 16.268 5.719 3.227 13.04 1.191 16.268-4.526l27.394-48.524c.533-.941.934-1.95 1.192-3h11.876l21.473 50.455c2.572 6.043 9.617 8.884 15.661 6.312 6.043-2.571 8.882-9.618 6.313-15.662l-21.626-50.816a22.735 22.735 0 0 0 4.2-13.175V103.78l20.441 23.593c4.302 4.962 11.879 5.505 16.843 1.205 4.964-4.302 5.506-11.879 1.205-16.843L150.152 92.17l13.752-4.043 1.276 4.342a4.213 4.213 0 0 0 5.216 2.846 4.215 4.215 0 0 0 2.847-5.216l-3.78-12.849a4.212 4.212 0 0 0-5.215-2.847 4.211 4.211 0 0 0-2.845 5.215l1.315 4.478-15.591 4.583-13.849-15.983 36.661-31.236 2.935 3.445a4.21 4.21 0 0 0 5.923.472 4.213 4.213 0 0 0 .475-5.924ZM84.706 14.326c1.161 0 2.251.321 3.182.877l-3.256 3.277-3.225-3.205a6.19 6.19 0 0 1 3.299-.949Zm-6.215 6.217c0-1.39.456-2.674 1.227-3.708l3.294 3.274-3.625 3.65a6.182 6.182 0 0 1-.896-3.216Zm6.215 6.216a6.195 6.195 0 0 1-3.786-1.288l3.719-3.745 3.806 3.783a6.191 6.191 0 0 1-3.739 1.25Zm5.286-2.948-3.736-3.714 3.354-3.373a6.18 6.18 0 0 1 1.313 3.818 6.193 6.193 0 0 1-.931 3.269Zm18.099-9.276c1.16 0 2.251.321 3.182.877l-3.257 3.277-3.224-3.206a6.21 6.21 0 0 1 3.299-.948Zm-6.216 6.217c0-1.391.457-2.674 1.228-3.708l3.294 3.273-3.624 3.649a6.162 6.162 0 0 1-.898-3.214Zm6.216 6.215a6.197 6.197 0 0 1-3.787-1.287l3.72-3.745 3.804 3.783a6.176 6.176 0 0 1-3.737 1.249Zm5.287-2.947-3.738-3.714 3.355-3.373a6.19 6.19 0 0 1 1.312 3.819 6.196 6.196 0 0 1-.929 3.268Z" class="fills" style="-webkit-print-color-adjust::exact;fill:#000"/></g></g></g></svg>