<svg xmlns="http://www.w3.org/2000/svg" width="16.536" height="16.5" fill="none" style="-webkit-print-color-adjust::exact" viewBox="-0.5 -0.5 16.536 16.5"><g data-testid="favicon"><g xml:space="preserve" data-testid="mon" style="fill:#000"><path d="M5.424 1.568Za6.915 6.915 0 0 1 2.597-.501c3.826 0 6.93 3.086 6.946 6.9v.03c0 3.673-2.862 6.678-6.482 6.916a6.936 6.936 0 0 1-6.265-3.101 6.889 6.889 0 0 1-1.146-3.815 6.93 6.93 0 0 1 4.35-6.429Z" class="fills" data-testid="svg-path" style="enable-background:new 0 0 2122 2122;fill:#eae2da;fill-opacity:1"/><path d="M5.424 1.568Zl.419.019c.03.002.062.004.089.019.031.019.269.361.127.352.69.041 1.383.082 2.059.227a.54.54 0 0 1 .28.143 5.116 5.116 0 0 1 2.648.194.702.702 0 0 1 .128-.023c.174-.017.384.042.439.208l-.063.016.005.009a5.328 5.328 0 0 1 2.931 3.851.929.929 0 0 1 .112.345c.012.097.003.2-.034.29a5.328 5.328 0 0 1-.002.754.631.631 0 0 1 .405-.005v.03c0 3.673-2.862 6.678-6.482 6.916a.58.58 0 0 0 .072-.392c-.017-.087-.056-.17-.054-.258.008-.266.351-.367.619-.377.523-.019 1.115-.004 1.484-.375a.38.38 0 0 0-.251-.123c-.084-.061.016-.192.117-.219.1-.026.233-.047.253-.148.008-.046-.012-.092-.02-.137a.284.284 0 0 1 .019-.153c-.434.12-.891.184-1.363.184-2.879 0-5.214-2.39-5.214-5.339a5.7 5.7 0 0 1 .031-.588.35.35 0 0 0-.017.055c-.013.062-.008.128-.032.187-.038.095-.139.145-.229.193a2.317 2.317 0 0 0-.374.253c.225.339.39.773.523 1.206.186.038.161.257.138.485.074.275.137.533.199.747.031.048.062.096.088.146a1.128 1.128 0 0 1 .08.846.963.963 0 0 1-.011.052c-.067.288-.327.552-.622.524.136.231.241.481.311.74.097-.024.194-.04.293-.035.168.01.343.094.411.248.088.202-.031.432-.026.653.011.412.304.418.54.612.017.013.033.028.049.043.125.124.073.342.043.531a6.955 6.955 0 0 1-2.517-1.66c.062-.026.127-.049.19-.069a3.726 3.726 0 0 1-.528-.586 8.24 8.24 0 0 1-.42-.616c-.021.09-.04.18-.047.269a6.889 6.889 0 0 1-1.146-3.815 6.93 6.93 0 0 1 4.35-6.429Zm1.263 1.424a2.852 2.852 0 0 0-.776.233c-.082.04-.172.143-.107.208.017.017.041.025.061.039a.12.12 0 0 1 .049.099c.239-.216.498-.41.773-.579Zm-1.134.792c-.18-.001-.365-.002-.53.068-.165.07-.305.231-.292.41.006.087.048.172.035.258-.03.201-.31.259-.402.44-.097.191.049.378.18.57a5.358 5.358 0 0 1 1.154-1.753c-.047.007-.097.007-.145.007ZM2.408 6.949c-.085-.411-.296-.827-.126-1.203-.2.162-.335.397-.385.648a.306.306 0 0 1 .181.049c.169.113.19.371.33.506Z" class="fills" data-testid="svg-path" style="enable-background:new 0 0 2122 2122;fill:#e7dfd1;fill-opacity:1"/><path d="M8.557 14.521c-.017-.087-.056-.17-.054-.258.008-.266.351-.367.619-.377.523-.019 1.115-.004 1.484-.375a.38.38 0 0 0-.251-.123c-.084-.061.016-.192.117-.219.1-.026.233-.047.253-.148.008-.046-.012-.092-.02-.137a.284.284 0 0 1 .019-.153.512.512 0 0 1 .18-.212c.119-.084.26-.136.374-.228.452-.363.323-1.195.825-1.487.139-.081.31-.106.435-.208.143-.119.193-.315.299-.469.106-.153.346-.258.472-.12-.03-.234.087-.458.2-.665l.319-.583c.116-.212.234-.428.411-.592a.914.914 0 0 1 .323-.195.631.631 0 0 1 .405-.005v.03c0 3.673-2.862 6.678-6.482 6.916a.58.58 0 0 0 .072-.392ZM14.459 7.373c-.068.061-.154.095-.238.131-.236.102-.479.24-.584.475-.058.129-.066.275-.107.412-.04.136-.129.275-.268.306a.267.267 0 0 1-.299-.167c-.036-.102-.007-.227-.073-.314-.077-.103-.236-.091-.348-.155-.124-.071-.173-.225-.184-.368a1.199 1.199 0 0 1 .401-.987c.081-.071.175-.133.231-.226.095-.154.066-.355.133-.523.076-.188.261-.307.435-.413a.192.192 0 0 1 .05-.024c.094-.023.152.096.187.185.158.398.506.552.691.878a.929.929 0 0 1 .112.345c.012.097.003.2-.034.29a.41.41 0 0 1-.105.155Z" class="fills" data-testid="svg-path" style="enable-background:new 0 0 2122 2122;fill:#e0dacb;fill-opacity:1"/><path d="M10.412 9.013c.13.002.251.103.38.08.293-.05.446-.303.788-.281.205.013.389.082.513.251.264.359.235 1.136-.102 1.414-.381.314-.775.679-.856 1.165-.023.14-.041.317-.176.365-.112.04-.258-.04-.349.038-.035.03-.051.077-.081.113-.113.134-.344.038-.435-.111-.092-.149-.115-.335-.222-.473-.129-.167-.353-.231-.5-.383-.168-.175-.205-.433-.235-.673-.033-.265-.048-.577.153-.753.156-.136.392-.139.557-.264.206-.154.307-.491.565-.488ZM12.116 6.907c-.128.033-.239-.112-.245-.244-.007-.132.048-.261.051-.393.007-.289-.227-.54-.231-.83-.001-.115.035-.229.03-.344-.01-.257-.216-.464-.285-.713-.082-.293.064-.64.341-.768.892-.411 1.166 1.054 1.131 1.593-.036.559-.336 1.062-.628 1.541-.04.067-.088.139-.164.158ZM11.686 3.107c-.017.138-.185.257-.297.176-.036-.026-.058-.066-.09-.097-.128-.124-.367-.069-.483-.203-.082-.094-.06-.248.023-.34a.435.435 0 0 1 .207-.121.702.702 0 0 1 .128-.023c.174-.017.384.042.439.208l-.063.016.005.009c.074.114.148.241.131.375ZM7.543 10.42c-.09-.069-.138-.179-.175-.286a1.093 1.093 0 0 1-.066-.533c.048-.28.342-.374.607-.306.368.095.381.78.179 1.03-.128.158-.383.219-.545.095ZM5.424 1.568Zl.419.019c.03.002.062.004.089.019.031.019.269.361.127.352.69.041 1.383.082 2.059.227a.54.54 0 0 1 .28.143.164.164 0 0 1 .04.158c-.023.077-.099.124-.172.159-.487.233-1.045.254-1.579.347a2.852 2.852 0 0 0-.776.233c-.082.04-.172.143-.107.208.017.017.041.025.061.039a.12.12 0 0 1 .049.099.196.196 0 0 1-.076.153.314.314 0 0 1-.14.053c-.047.007-.097.007-.145.007-.18-.001-.365-.002-.53.068-.165.07-.305.231-.292.41.006.087.048.172.035.258-.03.201-.31.259-.402.44-.097.191.049.378.18.57.046.067.09.135.12.204.147.328-.027.717-.273.98-.079.085-.17.169-.213.274a.35.35 0 0 0-.017.055c-.013.062-.008.128-.032.187-.038.095-.139.145-.229.193a2.317 2.317 0 0 0-.374.253 2.35 2.35 0 0 0-.232.225c-.087.098-.174.209-.299.246-.221.066-.441-.14-.506-.36-.065-.221-.031-.457-.056-.686a1.604 1.604 0 0 0-.025-.152c-.085-.411-.296-.827-.126-1.203a1.118 1.118 0 0 0-.384 1.073c.042.205.143.404.117.611-.011.084-.043.167-.036.252.019.227.303.394.253.616-.019.084-.086.152-.105.236-.027.123.052.242.087.363.035.121-.02.296-.146.285-.188-.017-.198-.412-.38-.36-.061.063-.016.166.028.242.274.475.433 1.015.461 1.563.208.165.195.483.133.741l-.043.175c-.021.09-.04.18-.047.269a6.889 6.889 0 0 1-1.146-3.815 6.93 6.93 0 0 1 4.35-6.429ZM3.234 12.739l.798-.257c.066-.021.133-.043.2-.06.097-.024.194-.04.293-.035.168.01.343.094.411.248.088.202-.031.432-.026.653.011.412.304.418.54.612.017.013.033.028.049.043.125.124.073.342.043.531a6.955 6.955 0 0 1-2.517-1.66c.062-.026.127-.049.209-.075Zc-.012.004-.006.002 0 0Z" class="fills" data-testid="svg-path" style="enable-background:new 0 0 2122 2122;fill:#e0dacb;fill-opacity:1"/><path d="M4.299 11.458c-.16.101-.397.09-.515-.058-.112-.141-.116-.383-.286-.44-.05-.017-.105-.013-.157-.023-.121-.023-.214-.124-.26-.238a.983.983 0 0 1-.05-.362c0-.284.023-.573.132-.835.109-.262.315-.495.585-.581a.63.63 0 0 1 .301-.039c.186.038.161.257.138.485-.014.134-.027.271.003.378.039.135.12.251.196.369.031.048.062.096.088.146a1.128 1.128 0 0 1 .08.846.643.643 0 0 1-.255.352Z" class="fills" data-testid="svg-path" style="enable-background:new 0 0 2122 2122;fill:#e0dacb;fill-opacity:1"/></g><g xml:space="preserve" data-testid="bat" style="fill:#000"><path d="M5.79 8.445c1.441.388 1.089-.303.949-1.346.519.763 1.235.311 1.059-.372.282.53.851 1.089 1.459.685.637-.411.393-4.343 4.243-5.868-.585.379-1.638 1.704-.118 3.1-1.865.068-1.156 1.852-.686 1.976-1.157.132-1.73.755-1.383 2.258-.957-.533-2.661-.447-2.099 1.901-.45-1.106-2.587-1.393-2.303.346-.778-.982-2.488-.739-2.874.331.019-.993-1.283-1.817-2.119-1.183C1.976 9.216.687 8.272-.5 8.362c2.031-1.643 4.703-.344 6.29.083Z" class="fills" data-testid="svg-path" style="fill:#4a4845;fill-opacity:1"/></g></g></svg>